<svg width="713" height="215" viewBox="0 0 713 215" fill="none" xmlns="http://www.w3.org/2000/svg">
<path d="M327.5 0H378L319.5 164H266L327.5 0Z" fill="#0087EB"/>
<path d="M528.5 0H579L520.5 164H467L528.5 0Z" fill="#0087EB"/>
<path d="M394.5 0H445L386.5 164H333L394.5 0Z" fill="#0087EB"/>
<path d="M595.5 0H646L587.5 164H534L595.5 0Z" fill="#0087EB"/>
<path d="M461.5 0H512L453.5 164H400L461.5 0Z" fill="#0087EB"/>
<path d="M662.5 0H713L654.5 164H601L662.5 0Z" fill="#0087EB"/>
<path d="M74.1 112.7H30.45L22.95 134H5.1L42.45 29.6H62.25L99.6 134H81.6L74.1 112.7ZM69.3 98.75L52.35 50.3L35.25 98.75H69.3ZM139.69 135.05C132.69 135.05 126.39 133.85 120.79 131.45C115.19 128.95 110.79 125.45 107.59 120.95C104.39 116.45 102.79 111.2 102.79 105.2H121.09C121.49 109.7 123.24 113.4 126.34 116.3C129.54 119.2 133.99 120.65 139.69 120.65C145.59 120.65 150.19 119.25 153.49 116.45C156.79 113.55 158.44 109.85 158.44 105.35C158.44 101.85 157.39 99 155.29 96.8C153.29 94.6 150.74 92.9 147.64 91.7C144.64 90.5 140.44 89.2 135.04 87.8C128.24 86 122.69 84.2 118.39 82.4C114.19 80.5 110.59 77.6 107.59 73.7C104.59 69.8 103.09 64.6 103.09 58.1C103.09 52.1 104.59 46.85 107.59 42.35C110.59 37.85 114.79 34.4 120.19 32C125.59 29.6 131.84 28.4 138.94 28.4C149.04 28.4 157.29 30.95 163.69 36.05C170.19 41.05 173.79 47.95 174.49 56.75H155.59C155.29 52.95 153.49 49.7 150.19 47C146.89 44.3 142.54 42.95 137.14 42.95C132.24 42.95 128.24 44.2 125.14 46.7C122.04 49.2 120.49 52.8 120.49 57.5C120.49 60.7 121.44 63.35 123.34 65.45C125.34 67.45 127.84 69.05 130.84 70.25C133.84 71.45 137.94 72.75 143.14 74.15C150.04 76.05 155.64 77.95 159.94 79.85C164.34 81.75 168.04 84.7 171.04 88.7C174.14 92.6 175.69 97.85 175.69 104.45C175.69 109.75 174.24 114.75 171.34 119.45C168.54 124.15 164.39 127.95 158.89 130.85C153.49 133.65 147.09 135.05 139.69 135.05ZM179.667 81.65C179.667 71.45 182.017 62.3 186.717 54.2C191.517 46.1 197.967 39.8 206.067 35.3C214.267 30.7 223.217 28.4 232.917 28.4C244.017 28.4 253.867 31.15 262.467 36.65C271.167 42.05 277.467 49.75 281.367 59.75H260.817C258.117 54.25 254.367 50.15 249.567 47.45C244.767 44.75 239.217 43.4 232.917 43.4C226.017 43.4 219.867 44.95 214.467 48.05C209.067 51.15 204.817 55.6 201.717 61.4C198.717 67.2 197.217 73.95 197.217 81.65C197.217 89.35 198.717 96.1 201.717 101.9C204.817 107.7 209.067 112.2 214.467 115.4C219.867 118.5 226.017 120.05 232.917 120.05C239.217 120.05 244.767 118.7 249.567 116C254.367 113.3 258.117 109.2 260.817 103.7H281.367C277.467 113.7 271.167 121.4 262.467 126.8C253.867 132.2 244.017 134.9 232.917 134.9C223.117 134.9 214.167 132.65 206.067 128.15C197.967 123.55 191.517 117.2 186.717 109.1C182.017 101 179.667 91.85 179.667 81.65ZM371.583 63.5C371.583 69.9 370.083 75.75 367.083 81.05C364.183 86.25 359.733 90.45 353.733 93.65C347.833 96.75 340.583 98.3 331.983 98.3H317.433V134H288.033V28.25H331.983C340.483 28.25 347.683 29.75 353.583 32.75C359.583 35.75 364.083 39.9 367.083 45.2C370.083 50.5 371.583 56.6 371.583 63.5ZM329.133 74.9C337.433 74.9 341.583 71.1 341.583 63.5C341.583 55.8 337.433 51.95 329.133 51.95H317.433V74.9H329.133ZM414.744 28.25C425.844 28.25 435.544 30.5 443.844 35C452.244 39.4 458.694 45.6 463.194 53.6C467.694 61.6 469.944 70.75 469.944 81.05C469.944 91.25 467.644 100.35 463.044 108.35C458.544 116.35 452.094 122.65 443.694 127.25C435.394 131.75 425.744 134 414.744 134H372.894V28.25H414.744ZM412.494 108.05C421.094 108.05 427.844 105.7 432.744 101C437.644 96.3 440.094 89.65 440.094 81.05C440.094 72.35 437.644 65.65 432.744 60.95C427.844 56.15 421.094 53.75 412.494 53.75H402.294V108.05H412.494ZM502.097 51.8V69.05H535.847V91.4H502.097V110.45H540.347V134H472.697V28.25H540.347V51.8H502.097ZM597.925 134L576.925 95H573.775V134H544.375V28.25H590.725C599.225 28.25 606.425 29.75 612.325 32.75C618.225 35.65 622.675 39.7 625.675 44.9C628.675 50 630.175 55.75 630.175 62.15C630.175 69.35 628.175 75.7 624.175 81.2C620.275 86.6 614.525 90.45 606.925 92.75L630.775 134H597.925ZM573.775 74.9H588.325C592.325 74.9 595.325 73.95 597.325 72.05C599.325 70.15 600.325 67.4 600.325 63.8C600.325 60.4 599.275 57.75 597.175 55.85C595.175 53.85 592.225 52.85 588.325 52.85H573.775V74.9ZM703.095 28.25V98.3C703.095 110.2 699.845 119.3 693.345 125.6C686.945 131.9 678.095 135.05 666.795 135.05C654.795 135.05 645.195 131.7 637.995 125C630.895 118.3 627.345 108.65 627.345 96.05H656.445C656.545 104.35 659.595 108.5 665.595 108.5C670.995 108.5 673.695 105.1 673.695 98.3V28.25H703.095Z" fill="#0E3355"/>
<path d="M18.76 198.34H6.439L3.96 205H2.147L11.693 179.618H13.543L23.052 205H21.239L18.76 198.34ZM18.242 196.934L12.618 181.801L6.957 196.934H18.242ZM33.9283 205.296C31.6836 205.296 29.8459 204.803 28.4153 203.816C27.0093 202.829 26.2199 201.423 26.0473 199.598H27.7493C27.8726 200.905 28.4646 201.941 29.5253 202.706C30.6106 203.471 32.0783 203.853 33.9283 203.853C35.4576 203.853 36.6663 203.471 37.5543 202.706C38.4669 201.917 38.9233 200.955 38.9233 199.82C38.9233 199.031 38.6766 198.389 38.1833 197.896C37.7146 197.378 37.1226 196.983 36.4073 196.712C35.6919 196.441 34.7176 196.145 33.4843 195.824C32.0043 195.429 30.8079 195.047 29.8953 194.677C28.9826 194.282 28.2056 193.703 27.5643 192.938C26.9229 192.173 26.6023 191.15 26.6023 189.867C26.6023 188.93 26.8859 188.066 27.4533 187.277C28.0206 186.463 28.8099 185.822 29.8213 185.353C30.8326 184.884 31.9796 184.65 33.2623 184.65C35.3589 184.65 37.0486 185.18 38.3313 186.241C39.6386 187.277 40.3416 188.72 40.4403 190.57H38.7753C38.7013 189.238 38.1833 188.153 37.2213 187.314C36.2593 186.475 34.9273 186.056 33.2253 186.056C31.7946 186.056 30.6106 186.426 29.6733 187.166C28.7359 187.906 28.2673 188.806 28.2673 189.867C28.2673 190.804 28.5263 191.569 29.0443 192.161C29.5869 192.728 30.2406 193.172 31.0053 193.493C31.7946 193.789 32.8306 194.11 34.1133 194.455C35.5193 194.825 36.6416 195.195 37.4803 195.565C38.3436 195.91 39.0713 196.428 39.6633 197.119C40.2553 197.785 40.5513 198.685 40.5513 199.82C40.5513 200.856 40.2676 201.793 39.7003 202.632C39.1329 203.471 38.3436 204.124 37.3323 204.593C36.3209 205.062 35.1863 205.296 33.9283 205.296ZM52.3199 205.296C50.0752 205.296 48.2375 204.803 46.8069 203.816C45.4009 202.829 44.6115 201.423 44.4389 199.598H46.1409C46.2642 200.905 46.8562 201.941 47.9169 202.706C49.0022 203.471 50.4699 203.853 52.3199 203.853C53.8492 203.853 55.0579 203.471 55.9459 202.706C56.8585 201.917 57.3149 200.955 57.3149 199.82C57.3149 199.031 57.0682 198.389 56.5749 197.896C56.1062 197.378 55.5142 196.983 54.7989 196.712C54.0835 196.441 53.1092 196.145 51.8759 195.824C50.3959 195.429 49.1995 195.047 48.2869 194.677C47.3742 194.282 46.5972 193.703 45.9559 192.938C45.3145 192.173 44.9939 191.15 44.9939 189.867C44.9939 188.93 45.2775 188.066 45.8449 187.277C46.4122 186.463 47.2015 185.822 48.2129 185.353C49.2242 184.884 50.3712 184.65 51.6539 184.65C53.7505 184.65 55.4402 185.18 56.7229 186.241C58.0302 187.277 58.7332 188.72 58.8319 190.57H57.1669C57.0929 189.238 56.5749 188.153 55.6129 187.314C54.6509 186.475 53.3189 186.056 51.6169 186.056C50.1862 186.056 49.0022 186.426 48.0649 187.166C47.1275 187.906 46.6589 188.806 46.6589 189.867C46.6589 190.804 46.9179 191.569 47.4359 192.161C47.9785 192.728 48.6322 193.172 49.3969 193.493C50.1862 193.789 51.2222 194.11 52.5049 194.455C53.9109 194.825 55.0332 195.195 55.8719 195.565C56.7352 195.91 57.4629 196.428 58.0549 197.119C58.6469 197.785 58.9429 198.685 58.9429 199.82C58.9429 200.856 58.6592 201.793 58.0919 202.632C57.5245 203.471 56.7352 204.124 55.7239 204.593C54.7125 205.062 53.5779 205.296 52.3199 205.296ZM72.8575 205.296C70.9828 205.296 69.2931 204.877 67.7885 204.038C66.2838 203.199 65.0998 202.003 64.2365 200.449C63.3978 198.87 62.9785 197.033 62.9785 194.936C62.9785 192.864 63.4101 191.051 64.2735 189.497C65.1368 187.918 66.3208 186.722 67.8255 185.908C69.3548 185.069 71.0568 184.65 72.9315 184.65C74.8061 184.65 76.4958 185.069 78.0005 185.908C79.5051 186.722 80.6768 187.906 81.5155 189.46C82.3788 191.014 82.8105 192.839 82.8105 194.936C82.8105 197.033 82.3788 198.87 81.5155 200.449C80.6521 202.003 79.4558 203.199 77.9265 204.038C76.4218 204.877 74.7321 205.296 72.8575 205.296ZM72.8575 203.816C74.3128 203.816 75.6695 203.495 76.9275 202.854C78.2101 202.188 79.2338 201.189 79.9985 199.857C80.7631 198.525 81.1455 196.885 81.1455 194.936C81.1455 193.012 80.7631 191.384 79.9985 190.052C79.2338 188.72 78.2225 187.733 76.9645 187.092C75.7065 186.426 74.3498 186.093 72.8945 186.093C71.4391 186.093 70.0825 186.426 68.8245 187.092C67.5911 187.733 66.5921 188.72 65.8275 190.052C65.0628 191.384 64.6805 193.012 64.6805 194.936C64.6805 196.885 65.0505 198.525 65.7905 199.857C66.5551 201.189 67.5541 202.188 68.7875 202.854C70.0455 203.495 71.4021 203.816 72.8575 203.816ZM86.8261 194.936C86.8261 192.839 87.2331 191.014 88.0471 189.46C88.8858 187.906 90.0328 186.722 91.4881 185.908C92.9681 185.069 94.6578 184.65 96.5571 184.65C99.0731 184.65 101.133 185.279 102.736 186.537C104.364 187.795 105.375 189.485 105.77 191.606H104.031C103.71 189.879 102.872 188.523 101.515 187.536C100.183 186.549 98.5305 186.056 96.5571 186.056C95.0771 186.056 93.7328 186.389 92.5241 187.055C91.3155 187.696 90.3411 188.695 89.6011 190.052C88.8858 191.384 88.5281 193.012 88.5281 194.936C88.5281 196.885 88.8858 198.525 89.6011 199.857C90.3411 201.189 91.3155 202.188 92.5241 202.854C93.7328 203.52 95.0771 203.853 96.5571 203.853C98.5305 203.853 100.183 203.36 101.515 202.373C102.872 201.386 103.71 200.03 104.031 198.303H105.77C105.375 200.4 104.364 202.089 102.736 203.372C101.108 204.655 99.0485 205.296 96.5571 205.296C94.6578 205.296 92.9681 204.877 91.4881 204.038C90.0328 203.199 88.8858 202.003 88.0471 200.449C87.2331 198.87 86.8261 197.033 86.8261 194.936ZM111.694 180.432C111.299 180.432 110.966 180.309 110.695 180.062C110.423 179.791 110.288 179.433 110.288 178.989C110.288 178.57 110.423 178.224 110.695 177.953C110.966 177.682 111.299 177.546 111.694 177.546C112.088 177.546 112.421 177.682 112.693 177.953C112.964 178.224 113.1 178.57 113.1 178.989C113.1 179.433 112.964 179.791 112.693 180.062C112.421 180.309 112.088 180.432 111.694 180.432ZM112.508 184.909V205H110.843V184.909H112.508ZM117.575 194.936C117.575 192.864 117.982 191.051 118.796 189.497C119.635 187.943 120.782 186.747 122.237 185.908C123.717 185.069 125.394 184.65 127.269 184.65C129.39 184.65 131.191 185.168 132.671 186.204C134.151 187.24 135.187 188.56 135.779 190.163V184.909H137.444V205H135.779V199.709C135.187 201.337 134.139 202.681 132.634 203.742C131.154 204.778 129.366 205.296 127.269 205.296C125.394 205.296 123.717 204.877 122.237 204.038C120.782 203.175 119.635 201.966 118.796 200.412C117.982 198.833 117.575 197.008 117.575 194.936ZM135.779 194.936C135.779 193.185 135.409 191.643 134.669 190.311C133.954 188.954 132.967 187.918 131.709 187.203C130.451 186.463 129.045 186.093 127.491 186.093C125.863 186.093 124.432 186.451 123.199 187.166C121.966 187.857 121.004 188.868 120.313 190.2C119.622 191.532 119.277 193.111 119.277 194.936C119.277 196.761 119.622 198.34 120.313 199.672C121.004 201.004 121.966 202.028 123.199 202.743C124.457 203.458 125.888 203.816 127.491 203.816C129.045 203.816 130.451 203.458 131.709 202.743C132.992 202.003 133.991 200.967 134.706 199.635C135.421 198.278 135.779 196.712 135.779 194.936ZM152.202 203.853C154.175 203.853 155.828 203.36 157.16 202.373C158.516 201.386 159.355 200.03 159.676 198.303H161.415C161.045 200.326 160.095 201.978 158.566 203.261C157.061 204.519 155.125 205.197 152.757 205.296V207.886C154.261 207.812 155.421 208.046 156.235 208.589C157.049 209.156 157.456 209.983 157.456 211.068C157.456 212.104 157.086 212.93 156.346 213.547C155.63 214.164 154.619 214.472 153.312 214.472H150.315V213.251H153.016C154.076 213.251 154.829 213.066 155.273 212.696C155.741 212.326 155.976 211.783 155.976 211.068C155.976 209.711 154.989 209.033 153.016 209.033H151.462V205.259C149.71 205.16 148.156 204.679 146.8 203.816C145.443 202.953 144.382 201.756 143.618 200.227C142.853 198.698 142.471 196.934 142.471 194.936C142.471 192.839 142.878 191.014 143.692 189.46C144.53 187.906 145.677 186.722 147.133 185.908C148.613 185.069 150.302 184.65 152.202 184.65C154.718 184.65 156.777 185.279 158.381 186.537C160.009 187.795 161.02 189.485 161.415 191.606H159.676C159.355 189.879 158.516 188.523 157.16 187.536C155.828 186.549 154.175 186.056 152.202 186.056C150.722 186.056 149.377 186.389 148.169 187.055C146.96 187.696 145.986 188.695 145.246 190.052C144.53 191.384 144.173 193.012 144.173 194.936C144.173 196.885 144.53 198.525 145.246 199.857C145.986 201.189 146.96 202.188 148.169 202.854C149.377 203.52 150.722 203.853 152.202 203.853ZM165.451 194.936C165.451 192.864 165.858 191.051 166.672 189.497C167.511 187.943 168.658 186.747 170.113 185.908C171.593 185.069 173.27 184.65 175.145 184.65C177.266 184.65 179.067 185.168 180.547 186.204C182.027 187.24 183.063 188.56 183.655 190.163V184.909H185.32V205H183.655V199.709C183.063 201.337 182.015 202.681 180.51 203.742C179.03 204.778 177.242 205.296 175.145 205.296C173.27 205.296 171.593 204.877 170.113 204.038C168.658 203.175 167.511 201.966 166.672 200.412C165.858 198.833 165.451 197.008 165.451 194.936ZM183.655 194.936C183.655 193.185 183.285 191.643 182.545 190.311C181.83 188.954 180.843 187.918 179.585 187.203C178.327 186.463 176.921 186.093 175.367 186.093C173.739 186.093 172.308 186.451 171.075 187.166C169.842 187.857 168.88 188.868 168.189 190.2C167.498 191.532 167.153 193.111 167.153 194.936C167.153 196.761 167.498 198.34 168.189 199.672C168.88 201.004 169.842 202.028 171.075 202.743C172.333 203.458 173.764 203.816 175.367 203.816C176.921 203.816 178.327 203.458 179.585 202.743C180.868 202.003 181.867 200.967 182.582 199.635C183.297 198.278 183.655 196.712 183.655 194.936ZM171.778 182.615C171.901 181.678 172.197 180.95 172.666 180.432C173.159 179.914 173.776 179.655 174.516 179.655C174.935 179.655 175.305 179.741 175.626 179.914C175.947 180.062 176.304 180.296 176.699 180.617C177.069 180.913 177.377 181.135 177.624 181.283C177.895 181.406 178.216 181.468 178.586 181.468C179.005 181.468 179.363 181.32 179.659 181.024C179.955 180.728 180.14 180.309 180.214 179.766H181.324C181.25 180.654 180.954 181.369 180.436 181.912C179.918 182.43 179.289 182.689 178.549 182.689C178.08 182.689 177.673 182.603 177.328 182.43C177.007 182.257 176.637 182.011 176.218 181.69C175.873 181.419 175.577 181.221 175.33 181.098C175.083 180.95 174.8 180.876 174.479 180.876C173.566 180.876 173.036 181.456 172.888 182.615H171.778ZM200.226 205.296C198.351 205.296 196.661 204.877 195.157 204.038C193.652 203.199 192.468 202.003 191.605 200.449C190.766 198.87 190.347 197.033 190.347 194.936C190.347 192.864 190.778 191.051 191.642 189.497C192.505 187.918 193.689 186.722 195.194 185.908C196.723 185.069 198.425 184.65 200.3 184.65C202.174 184.65 203.864 185.069 205.369 185.908C206.873 186.722 208.045 187.906 208.884 189.46C209.747 191.014 210.179 192.839 210.179 194.936C210.179 197.033 209.747 198.87 208.884 200.449C208.02 202.003 206.824 203.199 205.295 204.038C203.79 204.877 202.1 205.296 200.226 205.296ZM200.226 203.816C201.681 203.816 203.038 203.495 204.296 202.854C205.578 202.188 206.602 201.189 207.367 199.857C208.131 198.525 208.514 196.885 208.514 194.936C208.514 193.012 208.131 191.384 207.367 190.052C206.602 188.72 205.591 187.733 204.333 187.092C203.075 186.426 201.718 186.093 200.263 186.093C198.807 186.093 197.451 186.426 196.193 187.092C194.959 187.733 193.96 188.72 193.196 190.052C192.431 191.384 192.049 193.012 192.049 194.936C192.049 196.885 192.419 198.525 193.159 199.857C193.923 201.189 194.922 202.188 196.156 202.854C197.414 203.495 198.77 203.816 200.226 203.816ZM224.637 194.936C224.637 192.864 225.044 191.051 225.858 189.497C226.696 187.943 227.843 186.747 229.299 185.908C230.779 185.069 232.456 184.65 234.331 184.65C236.378 184.65 238.154 185.168 239.659 186.204C241.163 187.215 242.224 188.535 242.841 190.163V177.62H244.506V205H242.841V199.672C242.249 201.325 241.213 202.681 239.733 203.742C238.253 204.778 236.452 205.296 234.331 205.296C232.456 205.296 230.779 204.877 229.299 204.038C227.843 203.175 226.696 201.966 225.858 200.412C225.044 198.833 224.637 197.008 224.637 194.936ZM242.841 194.936C242.841 193.185 242.471 191.643 241.731 190.311C241.015 188.954 240.029 187.918 238.771 187.203C237.513 186.463 236.107 186.093 234.553 186.093C232.925 186.093 231.494 186.451 230.261 187.166C229.027 187.857 228.065 188.868 227.375 190.2C226.684 191.532 226.339 193.111 226.339 194.936C226.339 196.761 226.684 198.34 227.375 199.672C228.065 201.004 229.027 202.028 230.261 202.743C231.519 203.458 232.949 203.816 234.553 203.816C236.107 203.816 237.513 203.458 238.771 202.743C240.053 202.003 241.052 200.967 241.768 199.635C242.483 198.278 242.841 196.712 242.841 194.936ZM259.411 205.296C257.537 205.296 255.847 204.877 254.342 204.038C252.838 203.199 251.654 202.003 250.79 200.449C249.952 198.87 249.532 197.033 249.532 194.936C249.532 192.864 249.964 191.051 250.827 189.497C251.691 187.918 252.875 186.722 254.379 185.908C255.909 185.069 257.611 184.65 259.485 184.65C261.36 184.65 263.05 185.069 264.554 185.908C266.059 186.722 267.231 187.906 268.069 189.46C268.933 191.014 269.364 192.839 269.364 194.936C269.364 197.033 268.933 198.87 268.069 200.449C267.206 202.003 266.01 203.199 264.48 204.038C262.976 204.877 261.286 205.296 259.411 205.296ZM259.411 203.816C260.867 203.816 262.223 203.495 263.481 202.854C264.764 202.188 265.788 201.189 266.552 199.857C267.317 198.525 267.699 196.885 267.699 194.936C267.699 193.012 267.317 191.384 266.552 190.052C265.788 188.72 264.776 187.733 263.518 187.092C262.26 186.426 260.904 186.093 259.448 186.093C257.993 186.093 256.636 186.426 255.378 187.092C254.145 187.733 253.146 188.72 252.381 190.052C251.617 191.384 251.234 193.012 251.234 194.936C251.234 196.885 251.604 198.525 252.344 199.857C253.109 201.189 254.108 202.188 255.341 202.854C256.599 203.495 257.956 203.816 259.411 203.816ZM281.113 205.296C278.868 205.296 277.031 204.803 275.6 203.816C274.194 202.829 273.405 201.423 273.232 199.598H274.934C275.057 200.905 275.649 201.941 276.71 202.706C277.795 203.471 279.263 203.853 281.113 203.853C282.642 203.853 283.851 203.471 284.739 202.706C285.652 201.917 286.108 200.955 286.108 199.82C286.108 199.031 285.861 198.389 285.368 197.896C284.899 197.378 284.307 196.983 283.592 196.712C282.877 196.441 281.902 196.145 280.669 195.824C279.189 195.429 277.993 195.047 277.08 194.677C276.167 194.282 275.39 193.703 274.749 192.938C274.108 192.173 273.787 191.15 273.787 189.867C273.787 188.93 274.071 188.066 274.638 187.277C275.205 186.463 275.995 185.822 277.006 185.353C278.017 184.884 279.164 184.65 280.447 184.65C282.544 184.65 284.233 185.18 285.516 186.241C286.823 187.277 287.526 188.72 287.625 190.57H285.96C285.886 189.238 285.368 188.153 284.406 187.314C283.444 186.475 282.112 186.056 280.41 186.056C278.979 186.056 277.795 186.426 276.858 187.166C275.921 187.906 275.452 188.806 275.452 189.867C275.452 190.804 275.711 191.569 276.229 192.161C276.772 192.728 277.425 193.172 278.19 193.493C278.979 193.789 280.015 194.11 281.298 194.455C282.704 194.825 283.826 195.195 284.665 195.565C285.528 195.91 286.256 196.428 286.848 197.119C287.44 197.785 287.736 198.685 287.736 199.82C287.736 200.856 287.452 201.793 286.885 202.632C286.318 203.471 285.528 204.124 284.517 204.593C283.506 205.062 282.371 205.296 281.113 205.296ZM310.761 205.259C309.083 205.259 307.616 204.963 306.358 204.371C305.1 203.779 304.113 202.977 303.398 201.966C302.707 200.955 302.312 199.832 302.214 198.599H303.953C304.15 199.956 304.779 201.164 305.84 202.225C306.925 203.286 308.565 203.816 310.761 203.816C312.043 203.816 313.153 203.582 314.091 203.113C315.053 202.644 315.793 202.003 316.311 201.189C316.829 200.375 317.088 199.475 317.088 198.488C317.088 197.23 316.779 196.231 316.163 195.491C315.571 194.751 314.818 194.196 313.906 193.826C313.018 193.456 311.809 193.061 310.28 192.642C308.602 192.198 307.246 191.754 306.21 191.31C305.198 190.866 304.335 190.188 303.62 189.275C302.929 188.338 302.584 187.067 302.584 185.464C302.584 184.231 302.904 183.108 303.546 182.097C304.212 181.061 305.149 180.247 306.358 179.655C307.566 179.063 308.96 178.767 310.539 178.767C312.833 178.767 314.683 179.334 316.089 180.469C317.495 181.604 318.333 182.997 318.605 184.65H316.829C316.681 183.984 316.348 183.306 315.83 182.615C315.336 181.924 314.621 181.357 313.684 180.913C312.771 180.444 311.673 180.21 310.391 180.21C308.664 180.21 307.209 180.691 306.025 181.653C304.841 182.59 304.249 183.848 304.249 185.427C304.249 186.685 304.557 187.696 305.174 188.461C305.79 189.201 306.543 189.768 307.431 190.163C308.343 190.533 309.564 190.915 311.094 191.31C312.796 191.779 314.14 192.235 315.127 192.679C316.138 193.098 316.989 193.777 317.68 194.714C318.395 195.627 318.753 196.872 318.753 198.451C318.753 199.61 318.444 200.708 317.828 201.744C317.211 202.78 316.298 203.631 315.09 204.297C313.906 204.938 312.463 205.259 310.761 205.259ZM341.83 193.604C341.83 194.492 341.805 195.158 341.756 195.602H324.403C324.452 197.403 324.847 198.92 325.587 200.153C326.327 201.386 327.301 202.311 328.51 202.928C329.719 203.545 331.038 203.853 332.469 203.853C334.442 203.853 336.095 203.372 337.427 202.41C338.759 201.423 339.598 200.091 339.943 198.414H341.682C341.287 200.461 340.276 202.126 338.648 203.409C337.02 204.667 334.96 205.296 332.469 205.296C330.594 205.296 328.917 204.877 327.437 204.038C325.957 203.199 324.798 202.003 323.959 200.449C323.12 198.87 322.701 197.033 322.701 194.936C322.701 192.839 323.108 191.014 323.922 189.46C324.761 187.906 325.92 186.722 327.4 185.908C328.88 185.069 330.57 184.65 332.469 184.65C334.393 184.65 336.058 185.069 337.464 185.908C338.895 186.722 339.98 187.82 340.72 189.201C341.46 190.558 341.83 192.025 341.83 193.604ZM340.165 194.233C340.239 192.457 339.918 190.952 339.203 189.719C338.512 188.486 337.563 187.573 336.354 186.981C335.145 186.364 333.838 186.056 332.432 186.056C331.026 186.056 329.719 186.364 328.51 186.981C327.326 187.573 326.352 188.486 325.587 189.719C324.847 190.952 324.452 192.457 324.403 194.233H340.165ZM348.527 189.053C349.02 187.573 349.896 186.451 351.154 185.686C352.412 184.897 354.015 184.502 355.964 184.502V186.241H355.409C353.436 186.241 351.795 186.808 350.488 187.943C349.181 189.053 348.527 190.878 348.527 193.419V205H346.862V184.909H348.527V189.053ZM366.606 203.187L374.006 184.909H375.782L367.457 205H365.718L357.393 184.909H359.206L366.606 203.187ZM380.305 180.432C379.91 180.432 379.577 180.309 379.306 180.062C379.035 179.791 378.899 179.433 378.899 178.989C378.899 178.57 379.035 178.224 379.306 177.953C379.577 177.682 379.91 177.546 380.305 177.546C380.7 177.546 381.033 177.682 381.304 177.953C381.575 178.224 381.711 178.57 381.711 178.989C381.711 179.433 381.575 179.791 381.304 180.062C381.033 180.309 380.7 180.432 380.305 180.432ZM381.119 184.909V205H379.454V184.909H381.119ZM386.186 194.936C386.186 192.864 386.593 191.051 387.407 189.497C388.246 187.943 389.393 186.747 390.848 185.908C392.328 185.069 394.006 184.65 395.88 184.65C397.928 184.65 399.704 185.168 401.208 186.204C402.713 187.215 403.774 188.535 404.39 190.163V177.62H406.055V205H404.39V199.672C403.798 201.325 402.762 202.681 401.282 203.742C399.802 204.778 398.002 205.296 395.88 205.296C394.006 205.296 392.328 204.877 390.848 204.038C389.393 203.175 388.246 201.966 387.407 200.412C386.593 198.833 386.186 197.008 386.186 194.936ZM404.39 194.936C404.39 193.185 404.02 191.643 403.28 190.311C402.565 188.954 401.578 187.918 400.32 187.203C399.062 186.463 397.656 186.093 396.102 186.093C394.474 186.093 393.044 186.451 391.81 187.166C390.577 187.857 389.615 188.868 388.924 190.2C388.234 191.532 387.888 193.111 387.888 194.936C387.888 196.761 388.234 198.34 388.924 199.672C389.615 201.004 390.577 202.028 391.81 202.743C393.068 203.458 394.499 203.816 396.102 203.816C397.656 203.816 399.062 203.458 400.32 202.743C401.603 202.003 402.602 200.967 403.317 199.635C404.033 198.278 404.39 196.712 404.39 194.936ZM420.961 205.296C419.086 205.296 417.397 204.877 415.892 204.038C414.387 203.199 413.203 202.003 412.34 200.449C411.501 198.87 411.082 197.033 411.082 194.936C411.082 192.864 411.514 191.051 412.377 189.497C413.24 187.918 414.424 186.722 415.929 185.908C417.458 185.069 419.16 184.65 421.035 184.65C422.91 184.65 424.599 185.069 426.104 185.908C427.609 186.722 428.78 187.906 429.619 189.46C430.482 191.014 430.914 192.839 430.914 194.936C430.914 197.033 430.482 198.87 429.619 200.449C428.756 202.003 427.559 203.199 426.03 204.038C424.525 204.877 422.836 205.296 420.961 205.296ZM420.961 203.816C422.416 203.816 423.773 203.495 425.031 202.854C426.314 202.188 427.337 201.189 428.102 199.857C428.867 198.525 429.249 196.885 429.249 194.936C429.249 193.012 428.867 191.384 428.102 190.052C427.337 188.72 426.326 187.733 425.068 187.092C423.81 186.426 422.453 186.093 420.998 186.093C419.543 186.093 418.186 186.426 416.928 187.092C415.695 187.733 414.696 188.72 413.931 190.052C413.166 191.384 412.784 193.012 412.784 194.936C412.784 196.885 413.154 198.525 413.894 199.857C414.659 201.189 415.658 202.188 416.891 202.854C418.149 203.495 419.506 203.816 420.961 203.816ZM437.631 189.053C438.124 187.573 439 186.451 440.258 185.686C441.516 184.897 443.119 184.502 445.068 184.502V186.241H444.513C442.539 186.241 440.899 186.808 439.592 187.943C438.284 189.053 437.631 190.878 437.631 193.419V205H435.966V184.909H437.631V189.053ZM466.994 193.604C466.994 194.492 466.97 195.158 466.92 195.602H449.567C449.617 197.403 450.011 198.92 450.751 200.153C451.491 201.386 452.466 202.311 453.674 202.928C454.883 203.545 456.203 203.853 457.633 203.853C459.607 203.853 461.259 203.372 462.591 202.41C463.923 201.423 464.762 200.091 465.107 198.414H466.846C466.452 200.461 465.44 202.126 463.812 203.409C462.184 204.667 460.125 205.296 457.633 205.296C455.759 205.296 454.081 204.877 452.601 204.038C451.121 203.199 449.962 202.003 449.123 200.449C448.285 198.87 447.865 197.033 447.865 194.936C447.865 192.839 448.272 191.014 449.086 189.46C449.925 187.906 451.084 186.722 452.564 185.908C454.044 185.069 455.734 184.65 457.633 184.65C459.557 184.65 461.222 185.069 462.628 185.908C464.059 186.722 465.144 187.82 465.884 189.201C466.624 190.558 466.994 192.025 466.994 193.604ZM465.329 194.233C465.403 192.457 465.083 190.952 464.367 189.719C463.677 188.486 462.727 187.573 461.518 186.981C460.31 186.364 459.002 186.056 457.596 186.056C456.19 186.056 454.883 186.364 453.674 186.981C452.49 187.573 451.516 188.486 450.751 189.719C450.011 190.952 449.617 192.457 449.567 194.233H465.329ZM478.723 205.296C476.479 205.296 474.641 204.803 473.21 203.816C471.804 202.829 471.015 201.423 470.842 199.598H472.544C472.668 200.905 473.26 201.941 474.32 202.706C475.406 203.471 476.873 203.853 478.723 203.853C480.253 203.853 481.461 203.471 482.349 202.706C483.262 201.917 483.718 200.955 483.718 199.82C483.718 199.031 483.472 198.389 482.978 197.896C482.51 197.378 481.918 196.983 481.202 196.712C480.487 196.441 479.513 196.145 478.279 195.824C476.799 195.429 475.603 195.047 474.69 194.677C473.778 194.282 473.001 193.703 472.359 192.938C471.718 192.173 471.397 191.15 471.397 189.867C471.397 188.93 471.681 188.066 472.248 187.277C472.816 186.463 473.605 185.822 474.616 185.353C475.628 184.884 476.775 184.65 478.057 184.65C480.154 184.65 481.844 185.18 483.126 186.241C484.434 187.277 485.137 188.72 485.235 190.57H483.57C483.496 189.238 482.978 188.153 482.016 187.314C481.054 186.475 479.722 186.056 478.02 186.056C476.59 186.056 475.406 186.426 474.468 187.166C473.531 187.906 473.062 188.806 473.062 189.867C473.062 190.804 473.321 191.569 473.839 192.161C474.382 192.728 475.036 193.172 475.8 193.493C476.59 193.789 477.626 194.11 478.908 194.455C480.314 194.825 481.437 195.195 482.275 195.565C483.139 195.91 483.866 196.428 484.458 197.119C485.05 197.785 485.346 198.685 485.346 199.82C485.346 200.856 485.063 201.793 484.495 202.632C483.928 203.471 483.139 204.124 482.127 204.593C481.116 205.062 479.981 205.296 478.723 205.296ZM499.824 194.936C499.824 192.864 500.231 191.051 501.045 189.497C501.884 187.943 503.031 186.747 504.486 185.908C505.966 185.069 507.644 184.65 509.518 184.65C511.566 184.65 513.342 185.168 514.846 186.204C516.351 187.215 517.412 188.535 518.028 190.163V177.62H519.693V205H518.028V199.672C517.436 201.325 516.4 202.681 514.92 203.742C513.44 204.778 511.64 205.296 509.518 205.296C507.644 205.296 505.966 204.877 504.486 204.038C503.031 203.175 501.884 201.966 501.045 200.412C500.231 198.833 499.824 197.008 499.824 194.936ZM518.028 194.936C518.028 193.185 517.658 191.643 516.918 190.311C516.203 188.954 515.216 187.918 513.958 187.203C512.7 186.463 511.294 186.093 509.74 186.093C508.112 186.093 506.682 186.451 505.448 187.166C504.215 187.857 503.253 188.868 502.562 190.2C501.872 191.532 501.526 193.111 501.526 194.936C501.526 196.761 501.872 198.34 502.562 199.672C503.253 201.004 504.215 202.028 505.448 202.743C506.706 203.458 508.137 203.816 509.74 203.816C511.294 203.816 512.7 203.458 513.958 202.743C515.241 202.003 516.24 200.967 516.955 199.635C517.671 198.278 518.028 196.712 518.028 194.936ZM534.599 205.296C532.724 205.296 531.034 204.877 529.53 204.038C528.025 203.199 526.841 202.003 525.978 200.449C525.139 198.87 524.72 197.033 524.72 194.936C524.72 192.864 525.151 191.051 526.015 189.497C526.878 187.918 528.062 186.722 529.567 185.908C531.096 185.069 532.798 184.65 534.673 184.65C536.547 184.65 538.237 185.069 539.742 185.908C541.246 186.722 542.418 187.906 543.257 189.46C544.12 191.014 544.552 192.839 544.552 194.936C544.552 197.033 544.12 198.87 543.257 200.449C542.393 202.003 541.197 203.199 539.668 204.038C538.163 204.877 536.473 205.296 534.599 205.296ZM534.599 203.816C536.054 203.816 537.411 203.495 538.669 202.854C539.951 202.188 540.975 201.189 541.74 199.857C542.504 198.525 542.887 196.885 542.887 194.936C542.887 193.012 542.504 191.384 541.74 190.052C540.975 188.72 539.964 187.733 538.706 187.092C537.448 186.426 536.091 186.093 534.636 186.093C533.18 186.093 531.824 186.426 530.566 187.092C529.332 187.733 528.333 188.72 527.569 190.052C526.804 191.384 526.422 193.012 526.422 194.936C526.422 196.885 526.792 198.525 527.532 199.857C528.296 201.189 529.295 202.188 530.529 202.854C531.787 203.495 533.143 203.816 534.599 203.816ZM575.771 186.352C575.771 188.646 575.055 190.434 573.625 191.717C572.194 192.975 570.073 193.604 567.261 193.604H561.711V205H560.046V179.026H567.261C570.122 179.026 572.256 179.692 573.662 181.024C575.068 182.331 575.771 184.107 575.771 186.352ZM567.261 192.124C571.824 192.124 574.106 190.2 574.106 186.352C574.106 184.453 573.563 183.01 572.478 182.023C571.392 181.012 569.653 180.506 567.261 180.506H561.711V192.124H567.261ZM594.267 205L587.607 193.937H587.459H581.909V205H580.244V179.026H587.385C590.271 179.026 592.429 179.704 593.86 181.061C595.315 182.418 596.043 184.218 596.043 186.463C596.043 188.461 595.476 190.114 594.341 191.421C593.231 192.704 591.603 193.493 589.457 193.789L596.265 205H594.267ZM581.909 192.531H587.459C589.753 192.531 591.467 191.976 592.602 190.866C593.737 189.756 594.304 188.288 594.304 186.463C594.304 182.492 591.998 180.506 587.385 180.506H581.909V192.531ZM612.565 205.296C610.173 205.296 608.014 204.741 606.09 203.631C604.166 202.496 602.662 200.918 601.576 198.895C600.491 196.872 599.948 194.591 599.948 192.05C599.948 189.485 600.491 187.203 601.576 185.205C602.662 183.182 604.166 181.616 606.09 180.506C608.014 179.371 610.173 178.804 612.565 178.804C614.958 178.804 617.116 179.371 619.04 180.506C620.964 181.616 622.469 183.182 623.554 185.205C624.64 187.203 625.182 189.485 625.182 192.05C625.182 194.591 624.64 196.872 623.554 198.895C622.469 200.918 620.964 202.496 619.04 203.631C617.116 204.741 614.958 205.296 612.565 205.296ZM612.565 203.816C614.613 203.816 616.463 203.335 618.115 202.373C619.768 201.411 621.063 200.042 622 198.266C622.962 196.49 623.443 194.418 623.443 192.05C623.443 189.657 622.962 187.573 622 185.797C621.063 184.021 619.768 182.652 618.115 181.69C616.463 180.728 614.613 180.247 612.565 180.247C610.518 180.247 608.668 180.728 607.015 181.69C605.363 182.652 604.055 184.021 603.093 185.797C602.131 187.573 601.65 189.657 601.65 192.05C601.65 194.418 602.131 196.49 603.093 198.266C604.055 200.042 605.363 201.411 607.015 202.373C608.668 203.335 610.518 203.816 612.565 203.816ZM637.505 179.026C641.895 179.026 645.275 180.173 647.643 182.467C650.035 184.761 651.232 187.955 651.232 192.05C651.232 196.145 650.035 199.327 647.643 201.596C645.275 203.865 641.895 205 637.505 205H630.216V179.026H637.505ZM637.505 203.594C641.427 203.594 644.411 202.583 646.459 200.56C648.506 198.513 649.53 195.676 649.53 192.05C649.53 188.399 648.506 185.55 646.459 183.503C644.411 181.456 641.427 180.432 637.505 180.432H631.881V203.594H637.505ZM657.932 180.432V191.273H668.292V192.679H657.932V203.594H669.402V205H656.267V179.026H669.402V180.432H657.932ZM688.465 205L681.805 193.937H681.657H676.107V205H674.442V179.026H681.583C684.469 179.026 686.628 179.704 688.058 181.061C689.514 182.418 690.241 184.218 690.241 186.463C690.241 188.461 689.674 190.114 688.539 191.421C687.429 192.704 685.801 193.493 683.655 193.789L690.463 205H688.465ZM676.107 192.531H681.657C683.951 192.531 685.666 191.976 686.8 190.866C687.935 189.756 688.502 188.288 688.502 186.463C688.502 182.492 686.196 180.506 681.583 180.506H676.107V192.531ZM706.023 179.026V199.191C706.023 200.992 705.468 202.459 704.358 203.594C703.248 204.704 701.744 205.259 699.844 205.259C697.846 205.259 696.268 204.655 695.108 203.446C693.974 202.213 693.406 200.523 693.406 198.377H695.071C695.071 199.956 695.454 201.251 696.218 202.262C696.983 203.273 698.192 203.779 699.844 203.779C701.423 203.779 702.558 203.335 703.248 202.447C703.964 201.534 704.321 200.449 704.321 199.191V179.026H706.023Z" fill="#0E3355"/>
</svg>
