<svg width="714" height="216" viewBox="0 0 714 216" fill="none" xmlns="http://www.w3.org/2000/svg">
<path d="M328.128 0.793213H378.628L320.128 164.793H266.628L328.128 0.793213Z" fill="#0087EB"/>
<path d="M529.128 0.793213H579.628L521.128 164.793H467.628L529.128 0.793213Z" fill="#0087EB"/>
<path d="M395.128 0.793213H445.628L387.128 164.793H333.628L395.128 0.793213Z" fill="#0087EB"/>
<path d="M596.128 0.793213H646.628L588.128 164.793H534.628L596.128 0.793213Z" fill="#0087EB"/>
<path d="M462.128 0.793213H512.628L454.128 164.793H400.628L462.128 0.793213Z" fill="#0087EB"/>
<path d="M663.128 0.793213H713.628L655.128 164.793H601.628L663.128 0.793213Z" fill="#0087EB"/>
<path d="M74.728 113.493H31.078L23.578 134.793H5.72799L43.078 30.3932H62.878L100.228 134.793H82.228L74.728 113.493ZM69.928 99.5432L52.978 51.0932L35.878 99.5432H69.928ZM140.318 135.843C133.318 135.843 127.018 134.643 121.418 132.243C115.818 129.743 111.418 126.243 108.218 121.743C105.018 117.243 103.418 111.993 103.418 105.993H121.718C122.118 110.493 123.868 114.193 126.968 117.093C130.168 119.993 134.618 121.443 140.318 121.443C146.218 121.443 150.818 120.043 154.118 117.243C157.418 114.343 159.068 110.643 159.068 106.143C159.068 102.643 158.018 99.7932 155.918 97.5932C153.918 95.3932 151.368 93.6932 148.268 92.4932C145.268 91.2932 141.068 89.9932 135.668 88.5932C128.868 86.7932 123.318 84.9932 119.018 83.1932C114.818 81.2932 111.218 78.3932 108.218 74.4932C105.218 70.5932 103.718 65.3932 103.718 58.8932C103.718 52.8932 105.218 47.6432 108.218 43.1432C111.218 38.6432 115.418 35.1932 120.818 32.7932C126.218 30.3932 132.468 29.1932 139.568 29.1932C149.668 29.1932 157.918 31.7432 164.318 36.8432C170.818 41.8432 174.418 48.7432 175.118 57.5432H156.218C155.918 53.7432 154.118 50.4932 150.818 47.7932C147.518 45.0932 143.168 43.7432 137.768 43.7432C132.868 43.7432 128.868 44.9932 125.768 47.4932C122.668 49.9932 121.118 53.5932 121.118 58.2932C121.118 61.4932 122.068 64.1432 123.968 66.2432C125.968 68.2432 128.468 69.8432 131.468 71.0432C134.468 72.2432 138.568 73.5432 143.768 74.9432C150.668 76.8432 156.268 78.7432 160.568 80.6432C164.968 82.5432 168.668 85.4932 171.668 89.4932C174.768 93.3932 176.318 98.6432 176.318 105.243C176.318 110.543 174.868 115.543 171.968 120.243C169.168 124.943 165.018 128.743 159.518 131.643C154.118 134.443 147.718 135.843 140.318 135.843ZM180.295 82.4432C180.295 72.2432 182.645 63.0932 187.345 54.9932C192.145 46.8932 198.595 40.5932 206.695 36.0932C214.895 31.4932 223.845 29.1932 233.545 29.1932C244.645 29.1932 254.495 31.9432 263.095 37.4432C271.795 42.8432 278.095 50.5432 281.995 60.5432H261.445C258.745 55.0432 254.995 50.9432 250.195 48.2432C245.395 45.5432 239.845 44.1932 233.545 44.1932C226.645 44.1932 220.495 45.7432 215.095 48.8432C209.695 51.9432 205.445 56.3932 202.345 62.1932C199.345 67.9932 197.845 74.7432 197.845 82.4432C197.845 90.1432 199.345 96.8932 202.345 102.693C205.445 108.493 209.695 112.993 215.095 116.193C220.495 119.293 226.645 120.843 233.545 120.843C239.845 120.843 245.395 119.493 250.195 116.793C254.995 114.093 258.745 109.993 261.445 104.493H281.995C278.095 114.493 271.795 122.193 263.095 127.593C254.495 132.993 244.645 135.693 233.545 135.693C223.745 135.693 214.795 133.443 206.695 128.943C198.595 124.343 192.145 117.993 187.345 109.893C182.645 101.793 180.295 92.6432 180.295 82.4432ZM372.211 64.2932C372.211 70.6932 370.711 76.5432 367.711 81.8432C364.811 87.0432 360.361 91.2432 354.361 94.4432C348.461 97.5432 341.211 99.0932 332.611 99.0932H318.061V134.793H288.661V29.0432H332.611C341.111 29.0432 348.311 30.5432 354.211 33.5432C360.211 36.5432 364.711 40.6932 367.711 45.9932C370.711 51.2932 372.211 57.3932 372.211 64.2932ZM329.761 75.6932C338.061 75.6932 342.211 71.8932 342.211 64.2932C342.211 56.5932 338.061 52.7432 329.761 52.7432H318.061V75.6932H329.761ZM415.372 29.0432C426.472 29.0432 436.172 31.2932 444.472 35.7932C452.872 40.1932 459.322 46.3932 463.822 54.3932C468.322 62.3932 470.572 71.5432 470.572 81.8432C470.572 92.0432 468.272 101.143 463.672 109.143C459.172 117.143 452.722 123.443 444.322 128.043C436.022 132.543 426.372 134.793 415.372 134.793H373.522V29.0432H415.372ZM413.122 108.843C421.722 108.843 428.472 106.493 433.372 101.793C438.272 97.0932 440.722 90.4432 440.722 81.8432C440.722 73.1432 438.272 66.4432 433.372 61.7432C428.472 56.9432 421.722 54.5432 413.122 54.5432H402.922V108.843H413.122ZM502.725 52.5932V69.8432H536.475V92.1932H502.725V111.243H540.975V134.793H473.325V29.0432H540.975V52.5932H502.725ZM598.553 134.793L577.553 95.7932H574.403V134.793H545.003V29.0432H591.353C599.853 29.0432 607.053 30.5432 612.953 33.5432C618.853 36.4432 623.303 40.4932 626.303 45.6932C629.303 50.7932 630.803 56.5432 630.803 62.9432C630.803 70.1432 628.803 76.4932 624.803 81.9932C620.903 87.3932 615.153 91.2432 607.553 93.5432L631.403 134.793H598.553ZM574.403 75.6932H588.953C592.953 75.6932 595.953 74.7432 597.953 72.8432C599.953 70.9432 600.953 68.1932 600.953 64.5932C600.953 61.1932 599.903 58.5432 597.803 56.6432C595.803 54.6432 592.853 53.6432 588.953 53.6432H574.403V75.6932ZM703.723 29.0432V99.0932C703.723 110.993 700.473 120.093 693.973 126.393C687.573 132.693 678.723 135.843 667.423 135.843C655.423 135.843 645.823 132.493 638.623 125.793C631.523 119.093 627.973 109.443 627.973 96.8432H657.073C657.173 105.143 660.223 109.293 666.223 109.293C671.623 109.293 674.323 105.893 674.323 99.0932V29.0432H703.723Z" fill="white"/>
<path d="M19.388 199.133H7.06699L4.58799 205.793H2.77499L12.321 180.411H14.171L23.68 205.793H21.867L19.388 199.133ZM18.87 197.727L13.246 182.594L7.58499 197.727H18.87ZM34.5563 206.089C32.3116 206.089 30.4739 205.596 29.0433 204.609C27.6373 203.623 26.8479 202.217 26.6753 200.391H28.3773C28.5006 201.699 29.0926 202.735 30.1533 203.499C31.2386 204.264 32.7063 204.646 34.5563 204.646C36.0856 204.646 37.2943 204.264 38.1823 203.499C39.0949 202.71 39.5513 201.748 39.5513 200.613C39.5513 199.824 39.3046 199.183 38.8113 198.689C38.3426 198.171 37.7506 197.777 37.0353 197.505C36.3199 197.234 35.3456 196.938 34.1123 196.617C32.6323 196.223 31.4359 195.84 30.5233 195.47C29.6106 195.076 28.8336 194.496 28.1923 193.731C27.5509 192.967 27.2303 191.943 27.2303 190.66C27.2303 189.723 27.5139 188.86 28.0813 188.07C28.6486 187.256 29.4379 186.615 30.4493 186.146C31.4606 185.678 32.6076 185.443 33.8903 185.443C35.9869 185.443 37.6766 185.974 38.9593 187.034C40.2666 188.07 40.9696 189.513 41.0683 191.363H39.4033C39.3293 190.031 38.8113 188.946 37.8493 188.107C36.8873 187.269 35.5553 186.849 33.8533 186.849C32.4226 186.849 31.2386 187.219 30.3013 187.959C29.3639 188.699 28.8953 189.6 28.8953 190.66C28.8953 191.598 29.1543 192.362 29.6723 192.954C30.2149 193.522 30.8686 193.966 31.6333 194.286C32.4226 194.582 33.4586 194.903 34.7413 195.248C36.1473 195.618 37.2696 195.988 38.1083 196.358C38.9716 196.704 39.6993 197.222 40.2913 197.912C40.8833 198.578 41.1793 199.479 41.1793 200.613C41.1793 201.649 40.8956 202.587 40.3283 203.425C39.7609 204.264 38.9716 204.918 37.9603 205.386C36.9489 205.855 35.8143 206.089 34.5563 206.089ZM52.9479 206.089C50.7032 206.089 48.8655 205.596 47.4349 204.609C46.0289 203.623 45.2395 202.217 45.0669 200.391H46.7689C46.8922 201.699 47.4842 202.735 48.5449 203.499C49.6302 204.264 51.0979 204.646 52.9479 204.646C54.4772 204.646 55.6859 204.264 56.5739 203.499C57.4865 202.71 57.9429 201.748 57.9429 200.613C57.9429 199.824 57.6962 199.183 57.2029 198.689C56.7342 198.171 56.1422 197.777 55.4269 197.505C54.7115 197.234 53.7372 196.938 52.5039 196.617C51.0239 196.223 49.8275 195.84 48.9149 195.47C48.0022 195.076 47.2252 194.496 46.5839 193.731C45.9425 192.967 45.6219 191.943 45.6219 190.66C45.6219 189.723 45.9055 188.86 46.4729 188.07C47.0402 187.256 47.8295 186.615 48.8409 186.146C49.8522 185.678 50.9992 185.443 52.2819 185.443C54.3785 185.443 56.0682 185.974 57.3509 187.034C58.6582 188.07 59.3612 189.513 59.4599 191.363H57.7949C57.7209 190.031 57.2029 188.946 56.2409 188.107C55.2789 187.269 53.9469 186.849 52.2449 186.849C50.8142 186.849 49.6302 187.219 48.6929 187.959C47.7555 188.699 47.2869 189.6 47.2869 190.66C47.2869 191.598 47.5459 192.362 48.0639 192.954C48.6065 193.522 49.2602 193.966 50.0249 194.286C50.8142 194.582 51.8502 194.903 53.1329 195.248C54.5389 195.618 55.6612 195.988 56.4999 196.358C57.3632 196.704 58.0909 197.222 58.6829 197.912C59.2749 198.578 59.5709 199.479 59.5709 200.613C59.5709 201.649 59.2872 202.587 58.7199 203.425C58.1525 204.264 57.3632 204.918 56.3519 205.386C55.3405 205.855 54.2059 206.089 52.9479 206.089ZM73.4855 206.089C71.6108 206.089 69.9211 205.67 68.4165 204.831C66.9118 203.993 65.7278 202.796 64.8645 201.242C64.0258 199.664 63.6065 197.826 63.6065 195.729C63.6065 193.657 64.0381 191.844 64.9015 190.29C65.7648 188.712 66.9488 187.515 68.4535 186.701C69.9828 185.863 71.6848 185.443 73.5595 185.443C75.4341 185.443 77.1238 185.863 78.6285 186.701C80.1331 187.515 81.3048 188.699 82.1435 190.253C83.0068 191.807 83.4385 193.633 83.4385 195.729C83.4385 197.826 83.0068 199.664 82.1435 201.242C81.2801 202.796 80.0838 203.993 78.5545 204.831C77.0498 205.67 75.3601 206.089 73.4855 206.089ZM73.4855 204.609C74.9408 204.609 76.2975 204.289 77.5555 203.647C78.8381 202.981 79.8618 201.982 80.6265 200.65C81.3911 199.318 81.7735 197.678 81.7735 195.729C81.7735 193.805 81.3911 192.177 80.6265 190.845C79.8618 189.513 78.8505 188.527 77.5925 187.885C76.3345 187.219 74.9778 186.886 73.5225 186.886C72.0671 186.886 70.7105 187.219 69.4525 187.885C68.2191 188.527 67.2201 189.513 66.4555 190.845C65.6908 192.177 65.3085 193.805 65.3085 195.729C65.3085 197.678 65.6785 199.318 66.4185 200.65C67.1831 201.982 68.1821 202.981 69.4155 203.647C70.6735 204.289 72.0301 204.609 73.4855 204.609ZM87.4541 195.729C87.4541 193.633 87.8611 191.807 88.6751 190.253C89.5138 188.699 90.6608 187.515 92.1161 186.701C93.5961 185.863 95.2858 185.443 97.1851 185.443C99.7011 185.443 101.761 186.072 103.364 187.33C104.992 188.588 106.003 190.278 106.398 192.399H104.659C104.338 190.673 103.5 189.316 102.143 188.329C100.811 187.343 99.1584 186.849 97.1851 186.849C95.7051 186.849 94.3608 187.182 93.1521 187.848C91.9434 188.49 90.9691 189.489 90.2291 190.845C89.5138 192.177 89.1561 193.805 89.1561 195.729C89.1561 197.678 89.5138 199.318 90.2291 200.65C90.9691 201.982 91.9434 202.981 93.1521 203.647C94.3608 204.313 95.7051 204.646 97.1851 204.646C99.1584 204.646 100.811 204.153 102.143 203.166C103.5 202.18 104.338 200.823 104.659 199.096H106.398C106.003 201.193 104.992 202.883 103.364 204.165C101.736 205.448 99.6764 206.089 97.1851 206.089C95.2858 206.089 93.5961 205.67 92.1161 204.831C90.6608 203.993 89.5138 202.796 88.6751 201.242C87.8611 199.664 87.4541 197.826 87.4541 195.729ZM112.322 181.225C111.927 181.225 111.594 181.102 111.323 180.855C111.051 180.584 110.916 180.226 110.916 179.782C110.916 179.363 111.051 179.018 111.323 178.746C111.594 178.475 111.927 178.339 112.322 178.339C112.716 178.339 113.049 178.475 113.321 178.746C113.592 179.018 113.728 179.363 113.728 179.782C113.728 180.226 113.592 180.584 113.321 180.855C113.049 181.102 112.716 181.225 112.322 181.225ZM113.136 185.702V205.793H111.471V185.702H113.136ZM118.203 195.729C118.203 193.657 118.61 191.844 119.424 190.29C120.263 188.736 121.41 187.54 122.865 186.701C124.345 185.863 126.022 185.443 127.897 185.443C130.018 185.443 131.819 185.961 133.299 186.997C134.779 188.033 135.815 189.353 136.407 190.956V185.702H138.072V205.793H136.407V200.502C135.815 202.13 134.767 203.475 133.262 204.535C131.782 205.571 129.994 206.089 127.897 206.089C126.022 206.089 124.345 205.67 122.865 204.831C121.41 203.968 120.263 202.759 119.424 201.205C118.61 199.627 118.203 197.801 118.203 195.729ZM136.407 195.729C136.407 193.978 136.037 192.436 135.297 191.104C134.582 189.748 133.595 188.712 132.337 187.996C131.079 187.256 129.673 186.886 128.119 186.886C126.491 186.886 125.06 187.244 123.827 187.959C122.594 188.65 121.632 189.661 120.941 190.993C120.25 192.325 119.905 193.904 119.905 195.729C119.905 197.555 120.25 199.133 120.941 200.465C121.632 201.797 122.594 202.821 123.827 203.536C125.085 204.252 126.516 204.609 128.119 204.609C129.673 204.609 131.079 204.252 132.337 203.536C133.62 202.796 134.619 201.76 135.334 200.428C136.049 199.072 136.407 197.505 136.407 195.729ZM152.83 204.646C154.803 204.646 156.456 204.153 157.788 203.166C159.144 202.18 159.983 200.823 160.304 199.096H162.043C161.673 201.119 160.723 202.772 159.194 204.054C157.689 205.312 155.753 205.991 153.385 206.089V208.679C154.889 208.605 156.049 208.84 156.863 209.382C157.677 209.95 158.084 210.776 158.084 211.861C158.084 212.897 157.714 213.724 156.974 214.34C156.258 214.957 155.247 215.265 153.94 215.265H150.943V214.044H153.644C154.704 214.044 155.457 213.859 155.901 213.489C156.369 213.119 156.604 212.577 156.604 211.861C156.604 210.505 155.617 209.826 153.644 209.826H152.09V206.052C150.338 205.954 148.784 205.473 147.428 204.609C146.071 203.746 145.01 202.55 144.246 201.02C143.481 199.491 143.099 197.727 143.099 195.729C143.099 193.633 143.506 191.807 144.32 190.253C145.158 188.699 146.305 187.515 147.761 186.701C149.241 185.863 150.93 185.443 152.83 185.443C155.346 185.443 157.405 186.072 159.009 187.33C160.637 188.588 161.648 190.278 162.043 192.399H160.304C159.983 190.673 159.144 189.316 157.788 188.329C156.456 187.343 154.803 186.849 152.83 186.849C151.35 186.849 150.005 187.182 148.797 187.848C147.588 188.49 146.614 189.489 145.874 190.845C145.158 192.177 144.801 193.805 144.801 195.729C144.801 197.678 145.158 199.318 145.874 200.65C146.614 201.982 147.588 202.981 148.797 203.647C150.005 204.313 151.35 204.646 152.83 204.646ZM166.079 195.729C166.079 193.657 166.486 191.844 167.3 190.29C168.139 188.736 169.286 187.54 170.741 186.701C172.221 185.863 173.898 185.443 175.773 185.443C177.894 185.443 179.695 185.961 181.175 186.997C182.655 188.033 183.691 189.353 184.283 190.956V185.702H185.948V205.793H184.283V200.502C183.691 202.13 182.643 203.475 181.138 204.535C179.658 205.571 177.87 206.089 175.773 206.089C173.898 206.089 172.221 205.67 170.741 204.831C169.286 203.968 168.139 202.759 167.3 201.205C166.486 199.627 166.079 197.801 166.079 195.729ZM184.283 195.729C184.283 193.978 183.913 192.436 183.173 191.104C182.458 189.748 181.471 188.712 180.213 187.996C178.955 187.256 177.549 186.886 175.995 186.886C174.367 186.886 172.936 187.244 171.703 187.959C170.47 188.65 169.508 189.661 168.817 190.993C168.126 192.325 167.781 193.904 167.781 195.729C167.781 197.555 168.126 199.133 168.817 200.465C169.508 201.797 170.47 202.821 171.703 203.536C172.961 204.252 174.392 204.609 175.995 204.609C177.549 204.609 178.955 204.252 180.213 203.536C181.496 202.796 182.495 201.76 183.21 200.428C183.925 199.072 184.283 197.505 184.283 195.729ZM172.406 183.408C172.529 182.471 172.825 181.743 173.294 181.225C173.787 180.707 174.404 180.448 175.144 180.448C175.563 180.448 175.933 180.535 176.254 180.707C176.575 180.855 176.932 181.09 177.327 181.41C177.697 181.706 178.005 181.928 178.252 182.076C178.523 182.2 178.844 182.261 179.214 182.261C179.633 182.261 179.991 182.113 180.287 181.817C180.583 181.521 180.768 181.102 180.842 180.559H181.952C181.878 181.447 181.582 182.163 181.064 182.705C180.546 183.223 179.917 183.482 179.177 183.482C178.708 183.482 178.301 183.396 177.956 183.223C177.635 183.051 177.265 182.804 176.846 182.483C176.501 182.212 176.205 182.015 175.958 181.891C175.711 181.743 175.428 181.669 175.107 181.669C174.194 181.669 173.664 182.249 173.516 183.408H172.406ZM200.854 206.089C198.979 206.089 197.289 205.67 195.785 204.831C194.28 203.993 193.096 202.796 192.233 201.242C191.394 199.664 190.975 197.826 190.975 195.729C190.975 193.657 191.406 191.844 192.27 190.29C193.133 188.712 194.317 187.515 195.822 186.701C197.351 185.863 199.053 185.443 200.928 185.443C202.802 185.443 204.492 185.863 205.997 186.701C207.501 187.515 208.673 188.699 209.512 190.253C210.375 191.807 210.807 193.633 210.807 195.729C210.807 197.826 210.375 199.664 209.512 201.242C208.648 202.796 207.452 203.993 205.923 204.831C204.418 205.67 202.728 206.089 200.854 206.089ZM200.854 204.609C202.309 204.609 203.666 204.289 204.924 203.647C206.206 202.981 207.23 201.982 207.995 200.65C208.759 199.318 209.142 197.678 209.142 195.729C209.142 193.805 208.759 192.177 207.995 190.845C207.23 189.513 206.219 188.527 204.961 187.885C203.703 187.219 202.346 186.886 200.891 186.886C199.435 186.886 198.079 187.219 196.821 187.885C195.587 188.527 194.588 189.513 193.824 190.845C193.059 192.177 192.677 193.805 192.677 195.729C192.677 197.678 193.047 199.318 193.787 200.65C194.551 201.982 195.55 202.981 196.784 203.647C198.042 204.289 199.398 204.609 200.854 204.609ZM225.265 195.729C225.265 193.657 225.672 191.844 226.486 190.29C227.324 188.736 228.471 187.54 229.927 186.701C231.407 185.863 233.084 185.443 234.959 185.443C237.006 185.443 238.782 185.961 240.287 186.997C241.791 188.009 242.852 189.328 243.469 190.956V178.413H245.134V205.793H243.469V200.465C242.877 202.118 241.841 203.475 240.361 204.535C238.881 205.571 237.08 206.089 234.959 206.089C233.084 206.089 231.407 205.67 229.927 204.831C228.471 203.968 227.324 202.759 226.486 201.205C225.672 199.627 225.265 197.801 225.265 195.729ZM243.469 195.729C243.469 193.978 243.099 192.436 242.359 191.104C241.643 189.748 240.657 188.712 239.399 187.996C238.141 187.256 236.735 186.886 235.181 186.886C233.553 186.886 232.122 187.244 230.889 187.959C229.655 188.65 228.693 189.661 228.003 190.993C227.312 192.325 226.967 193.904 226.967 195.729C226.967 197.555 227.312 199.133 228.003 200.465C228.693 201.797 229.655 202.821 230.889 203.536C232.147 204.252 233.577 204.609 235.181 204.609C236.735 204.609 238.141 204.252 239.399 203.536C240.681 202.796 241.68 201.76 242.396 200.428C243.111 199.072 243.469 197.505 243.469 195.729ZM260.039 206.089C258.165 206.089 256.475 205.67 254.97 204.831C253.466 203.993 252.282 202.796 251.418 201.242C250.58 199.664 250.16 197.826 250.16 195.729C250.16 193.657 250.592 191.844 251.455 190.29C252.319 188.712 253.503 187.515 255.007 186.701C256.537 185.863 258.239 185.443 260.113 185.443C261.988 185.443 263.678 185.863 265.182 186.701C266.687 187.515 267.859 188.699 268.697 190.253C269.561 191.807 269.992 193.633 269.992 195.729C269.992 197.826 269.561 199.664 268.697 201.242C267.834 202.796 266.638 203.993 265.108 204.831C263.604 205.67 261.914 206.089 260.039 206.089ZM260.039 204.609C261.495 204.609 262.851 204.289 264.109 203.647C265.392 202.981 266.416 201.982 267.18 200.65C267.945 199.318 268.327 197.678 268.327 195.729C268.327 193.805 267.945 192.177 267.18 190.845C266.416 189.513 265.404 188.527 264.146 187.885C262.888 187.219 261.532 186.886 260.076 186.886C258.621 186.886 257.264 187.219 256.006 187.885C254.773 188.527 253.774 189.513 253.009 190.845C252.245 192.177 251.862 193.805 251.862 195.729C251.862 197.678 252.232 199.318 252.972 200.65C253.737 201.982 254.736 202.981 255.969 203.647C257.227 204.289 258.584 204.609 260.039 204.609ZM281.741 206.089C279.496 206.089 277.658 205.596 276.228 204.609C274.822 203.623 274.032 202.217 273.86 200.391H275.562C275.685 201.699 276.277 202.735 277.338 203.499C278.423 204.264 279.891 204.646 281.741 204.646C283.27 204.646 284.479 204.264 285.367 203.499C286.279 202.71 286.736 201.748 286.736 200.613C286.736 199.824 286.489 199.183 285.996 198.689C285.527 198.171 284.935 197.777 284.22 197.505C283.504 197.234 282.53 196.938 281.297 196.617C279.817 196.223 278.62 195.84 277.708 195.47C276.795 195.076 276.018 194.496 275.377 193.731C274.735 192.967 274.415 191.943 274.415 190.66C274.415 189.723 274.698 188.86 275.266 188.07C275.833 187.256 276.622 186.615 277.634 186.146C278.645 185.678 279.792 185.443 281.075 185.443C283.171 185.443 284.861 185.974 286.144 187.034C287.451 188.07 288.154 189.513 288.253 191.363H286.588C286.514 190.031 285.996 188.946 285.034 188.107C284.072 187.269 282.74 186.849 281.038 186.849C279.607 186.849 278.423 187.219 277.486 187.959C276.548 188.699 276.08 189.6 276.08 190.66C276.08 191.598 276.339 192.362 276.857 192.954C277.399 193.522 278.053 193.966 278.818 194.286C279.607 194.582 280.643 194.903 281.926 195.248C283.332 195.618 284.454 195.988 285.293 196.358C286.156 196.704 286.884 197.222 287.476 197.912C288.068 198.578 288.364 199.479 288.364 200.613C288.364 201.649 288.08 202.587 287.513 203.425C286.945 204.264 286.156 204.918 285.145 205.386C284.133 205.855 282.999 206.089 281.741 206.089ZM311.389 206.052C309.711 206.052 308.244 205.756 306.986 205.164C305.728 204.572 304.741 203.771 304.026 202.759C303.335 201.748 302.94 200.626 302.842 199.392H304.581C304.778 200.749 305.407 201.958 306.468 203.018C307.553 204.079 309.193 204.609 311.389 204.609C312.671 204.609 313.781 204.375 314.719 203.906C315.681 203.438 316.421 202.796 316.939 201.982C317.457 201.168 317.716 200.268 317.716 199.281C317.716 198.023 317.407 197.024 316.791 196.284C316.199 195.544 315.446 194.989 314.534 194.619C313.646 194.249 312.437 193.855 310.908 193.435C309.23 192.991 307.874 192.547 306.838 192.103C305.826 191.659 304.963 190.981 304.248 190.068C303.557 189.131 303.212 187.861 303.212 186.257C303.212 185.024 303.532 183.902 304.174 182.89C304.84 181.854 305.777 181.04 306.986 180.448C308.194 179.856 309.588 179.56 311.167 179.56C313.461 179.56 315.311 180.128 316.717 181.262C318.123 182.397 318.961 183.791 319.233 185.443H317.457C317.309 184.777 316.976 184.099 316.458 183.408C315.964 182.718 315.249 182.15 314.312 181.706C313.399 181.238 312.301 181.003 311.019 181.003C309.292 181.003 307.837 181.484 306.653 182.446C305.469 183.384 304.877 184.642 304.877 186.22C304.877 187.478 305.185 188.49 305.802 189.254C306.418 189.994 307.171 190.562 308.059 190.956C308.971 191.326 310.192 191.709 311.722 192.103C313.424 192.572 314.768 193.028 315.755 193.472C316.766 193.892 317.617 194.57 318.308 195.507C319.023 196.42 319.381 197.666 319.381 199.244C319.381 200.404 319.072 201.501 318.456 202.537C317.839 203.573 316.926 204.424 315.718 205.09C314.534 205.732 313.091 206.052 311.389 206.052ZM342.458 194.397C342.458 195.285 342.433 195.951 342.384 196.395H325.031C325.08 198.196 325.475 199.713 326.215 200.946C326.955 202.18 327.929 203.105 329.138 203.721C330.347 204.338 331.666 204.646 333.097 204.646C335.07 204.646 336.723 204.165 338.055 203.203C339.387 202.217 340.226 200.885 340.571 199.207H342.31C341.915 201.255 340.904 202.92 339.276 204.202C337.648 205.46 335.588 206.089 333.097 206.089C331.222 206.089 329.545 205.67 328.065 204.831C326.585 203.993 325.426 202.796 324.587 201.242C323.748 199.664 323.329 197.826 323.329 195.729C323.329 193.633 323.736 191.807 324.55 190.253C325.389 188.699 326.548 187.515 328.028 186.701C329.508 185.863 331.198 185.443 333.097 185.443C335.021 185.443 336.686 185.863 338.092 186.701C339.523 187.515 340.608 188.613 341.348 189.994C342.088 191.351 342.458 192.819 342.458 194.397ZM340.793 195.026C340.867 193.25 340.546 191.746 339.831 190.512C339.14 189.279 338.191 188.366 336.982 187.774C335.773 187.158 334.466 186.849 333.06 186.849C331.654 186.849 330.347 187.158 329.138 187.774C327.954 188.366 326.98 189.279 326.215 190.512C325.475 191.746 325.08 193.25 325.031 195.026H340.793ZM349.155 189.846C349.648 188.366 350.524 187.244 351.782 186.479C353.04 185.69 354.643 185.295 356.592 185.295V187.034H356.037C354.064 187.034 352.423 187.602 351.116 188.736C349.809 189.846 349.155 191.672 349.155 194.212V205.793H347.49V185.702H349.155V189.846ZM367.234 203.98L374.634 185.702H376.41L368.085 205.793H366.346L358.021 185.702H359.834L367.234 203.98ZM380.933 181.225C380.538 181.225 380.205 181.102 379.934 180.855C379.663 180.584 379.527 180.226 379.527 179.782C379.527 179.363 379.663 179.018 379.934 178.746C380.205 178.475 380.538 178.339 380.933 178.339C381.328 178.339 381.661 178.475 381.932 178.746C382.203 179.018 382.339 179.363 382.339 179.782C382.339 180.226 382.203 180.584 381.932 180.855C381.661 181.102 381.328 181.225 380.933 181.225ZM381.747 185.702V205.793H380.082V185.702H381.747ZM386.814 195.729C386.814 193.657 387.221 191.844 388.035 190.29C388.874 188.736 390.021 187.54 391.476 186.701C392.956 185.863 394.634 185.443 396.508 185.443C398.556 185.443 400.332 185.961 401.836 186.997C403.341 188.009 404.402 189.328 405.018 190.956V178.413H406.683V205.793H405.018V200.465C404.426 202.118 403.39 203.475 401.91 204.535C400.43 205.571 398.63 206.089 396.508 206.089C394.634 206.089 392.956 205.67 391.476 204.831C390.021 203.968 388.874 202.759 388.035 201.205C387.221 199.627 386.814 197.801 386.814 195.729ZM405.018 195.729C405.018 193.978 404.648 192.436 403.908 191.104C403.193 189.748 402.206 188.712 400.948 187.996C399.69 187.256 398.284 186.886 396.73 186.886C395.102 186.886 393.672 187.244 392.438 187.959C391.205 188.65 390.243 189.661 389.552 190.993C388.862 192.325 388.516 193.904 388.516 195.729C388.516 197.555 388.862 199.133 389.552 200.465C390.243 201.797 391.205 202.821 392.438 203.536C393.696 204.252 395.127 204.609 396.73 204.609C398.284 204.609 399.69 204.252 400.948 203.536C402.231 202.796 403.23 201.76 403.945 200.428C404.661 199.072 405.018 197.505 405.018 195.729ZM421.589 206.089C419.714 206.089 418.025 205.67 416.52 204.831C415.015 203.993 413.831 202.796 412.968 201.242C412.129 199.664 411.71 197.826 411.71 195.729C411.71 193.657 412.142 191.844 413.005 190.29C413.868 188.712 415.052 187.515 416.557 186.701C418.086 185.863 419.788 185.443 421.663 185.443C423.538 185.443 425.227 185.863 426.732 186.701C428.237 187.515 429.408 188.699 430.247 190.253C431.11 191.807 431.542 193.633 431.542 195.729C431.542 197.826 431.11 199.664 430.247 201.242C429.384 202.796 428.187 203.993 426.658 204.831C425.153 205.67 423.464 206.089 421.589 206.089ZM421.589 204.609C423.044 204.609 424.401 204.289 425.659 203.647C426.942 202.981 427.965 201.982 428.73 200.65C429.495 199.318 429.877 197.678 429.877 195.729C429.877 193.805 429.495 192.177 428.73 190.845C427.965 189.513 426.954 188.527 425.696 187.885C424.438 187.219 423.081 186.886 421.626 186.886C420.171 186.886 418.814 187.219 417.556 187.885C416.323 188.527 415.324 189.513 414.559 190.845C413.794 192.177 413.412 193.805 413.412 195.729C413.412 197.678 413.782 199.318 414.522 200.65C415.287 201.982 416.286 202.981 417.519 203.647C418.777 204.289 420.134 204.609 421.589 204.609ZM438.259 189.846C438.752 188.366 439.628 187.244 440.886 186.479C442.144 185.69 443.747 185.295 445.696 185.295V187.034H445.141C443.167 187.034 441.527 187.602 440.22 188.736C438.912 189.846 438.259 191.672 438.259 194.212V205.793H436.594V185.702H438.259V189.846ZM467.622 194.397C467.622 195.285 467.598 195.951 467.548 196.395H450.195C450.245 198.196 450.639 199.713 451.379 200.946C452.119 202.18 453.094 203.105 454.302 203.721C455.511 204.338 456.831 204.646 458.261 204.646C460.235 204.646 461.887 204.165 463.219 203.203C464.551 202.217 465.39 200.885 465.735 199.207H467.474C467.08 201.255 466.068 202.92 464.44 204.202C462.812 205.46 460.753 206.089 458.261 206.089C456.387 206.089 454.709 205.67 453.229 204.831C451.749 203.993 450.59 202.796 449.751 201.242C448.913 199.664 448.493 197.826 448.493 195.729C448.493 193.633 448.9 191.807 449.714 190.253C450.553 188.699 451.712 187.515 453.192 186.701C454.672 185.863 456.362 185.443 458.261 185.443C460.185 185.443 461.85 185.863 463.256 186.701C464.687 187.515 465.772 188.613 466.512 189.994C467.252 191.351 467.622 192.819 467.622 194.397ZM465.957 195.026C466.031 193.25 465.711 191.746 464.995 190.512C464.305 189.279 463.355 188.366 462.146 187.774C460.938 187.158 459.63 186.849 458.224 186.849C456.818 186.849 455.511 187.158 454.302 187.774C453.118 188.366 452.144 189.279 451.379 190.512C450.639 191.746 450.245 193.25 450.195 195.026H465.957ZM479.351 206.089C477.107 206.089 475.269 205.596 473.838 204.609C472.432 203.623 471.643 202.217 471.47 200.391H473.172C473.296 201.699 473.888 202.735 474.948 203.499C476.034 204.264 477.501 204.646 479.351 204.646C480.881 204.646 482.089 204.264 482.977 203.499C483.89 202.71 484.346 201.748 484.346 200.613C484.346 199.824 484.1 199.183 483.606 198.689C483.138 198.171 482.546 197.777 481.83 197.505C481.115 197.234 480.141 196.938 478.907 196.617C477.427 196.223 476.231 195.84 475.318 195.47C474.406 195.076 473.629 194.496 472.987 193.731C472.346 192.967 472.025 191.943 472.025 190.66C472.025 189.723 472.309 188.86 472.876 188.07C473.444 187.256 474.233 186.615 475.244 186.146C476.256 185.678 477.403 185.443 478.685 185.443C480.782 185.443 482.472 185.974 483.754 187.034C485.062 188.07 485.765 189.513 485.863 191.363H484.198C484.124 190.031 483.606 188.946 482.644 188.107C481.682 187.269 480.35 186.849 478.648 186.849C477.218 186.849 476.034 187.219 475.096 187.959C474.159 188.699 473.69 189.6 473.69 190.66C473.69 191.598 473.949 192.362 474.467 192.954C475.01 193.522 475.664 193.966 476.428 194.286C477.218 194.582 478.254 194.903 479.536 195.248C480.942 195.618 482.065 195.988 482.903 196.358C483.767 196.704 484.494 197.222 485.086 197.912C485.678 198.578 485.974 199.479 485.974 200.613C485.974 201.649 485.691 202.587 485.123 203.425C484.556 204.264 483.767 204.918 482.755 205.386C481.744 205.855 480.609 206.089 479.351 206.089ZM500.452 195.729C500.452 193.657 500.859 191.844 501.673 190.29C502.512 188.736 503.659 187.54 505.114 186.701C506.594 185.863 508.271 185.443 510.146 185.443C512.193 185.443 513.969 185.961 515.474 186.997C516.979 188.009 518.039 189.328 518.656 190.956V178.413H520.321V205.793H518.656V200.465C518.064 202.118 517.028 203.475 515.548 204.535C514.068 205.571 512.267 206.089 510.146 206.089C508.271 206.089 506.594 205.67 505.114 204.831C503.659 203.968 502.512 202.759 501.673 201.205C500.859 199.627 500.452 197.801 500.452 195.729ZM518.656 195.729C518.656 193.978 518.286 192.436 517.546 191.104C516.831 189.748 515.844 188.712 514.586 187.996C513.328 187.256 511.922 186.886 510.368 186.886C508.74 186.886 507.309 187.244 506.076 187.959C504.843 188.65 503.881 189.661 503.19 190.993C502.499 192.325 502.154 193.904 502.154 195.729C502.154 197.555 502.499 199.133 503.19 200.465C503.881 201.797 504.843 202.821 506.076 203.536C507.334 204.252 508.765 204.609 510.368 204.609C511.922 204.609 513.328 204.252 514.586 203.536C515.869 202.796 516.868 201.76 517.583 200.428C518.298 199.072 518.656 197.505 518.656 195.729ZM535.227 206.089C533.352 206.089 531.662 205.67 530.158 204.831C528.653 203.993 527.469 202.796 526.606 201.242C525.767 199.664 525.348 197.826 525.348 195.729C525.348 193.657 525.779 191.844 526.643 190.29C527.506 188.712 528.69 187.515 530.195 186.701C531.724 185.863 533.426 185.443 535.301 185.443C537.175 185.443 538.865 185.863 540.37 186.701C541.874 187.515 543.046 188.699 543.885 190.253C544.748 191.807 545.18 193.633 545.18 195.729C545.18 197.826 544.748 199.664 543.885 201.242C543.021 202.796 541.825 203.993 540.296 204.831C538.791 205.67 537.101 206.089 535.227 206.089ZM535.227 204.609C536.682 204.609 538.039 204.289 539.297 203.647C540.579 202.981 541.603 201.982 542.368 200.65C543.132 199.318 543.515 197.678 543.515 195.729C543.515 193.805 543.132 192.177 542.368 190.845C541.603 189.513 540.592 188.527 539.334 187.885C538.076 187.219 536.719 186.886 535.264 186.886C533.808 186.886 532.452 187.219 531.194 187.885C529.96 188.527 528.961 189.513 528.197 190.845C527.432 192.177 527.05 193.805 527.05 195.729C527.05 197.678 527.42 199.318 528.16 200.65C528.924 201.982 529.923 202.981 531.157 203.647C532.415 204.289 533.771 204.609 535.227 204.609ZM576.399 187.145C576.399 189.439 575.683 191.228 574.253 192.51C572.822 193.768 570.701 194.397 567.889 194.397H562.339V205.793H560.674V179.819H567.889C570.75 179.819 572.884 180.485 574.29 181.817C575.696 183.125 576.399 184.901 576.399 187.145ZM567.889 192.917C572.452 192.917 574.734 190.993 574.734 187.145C574.734 185.246 574.191 183.803 573.106 182.816C572.02 181.805 570.281 181.299 567.889 181.299H562.339V192.917H567.889ZM594.895 205.793L588.235 194.73H588.087H582.537V205.793H580.872V179.819H588.013C590.899 179.819 593.057 180.498 594.488 181.854C595.943 183.211 596.671 185.012 596.671 187.256C596.671 189.254 596.104 190.907 594.969 192.214C593.859 193.497 592.231 194.286 590.085 194.582L596.893 205.793H594.895ZM582.537 193.324H588.087C590.381 193.324 592.095 192.769 593.23 191.659C594.365 190.549 594.932 189.082 594.932 187.256C594.932 183.285 592.626 181.299 588.013 181.299H582.537V193.324ZM613.193 206.089C610.801 206.089 608.642 205.534 606.718 204.424C604.794 203.29 603.29 201.711 602.204 199.688C601.119 197.666 600.576 195.384 600.576 192.843C600.576 190.278 601.119 187.996 602.204 185.998C603.29 183.976 604.794 182.409 606.718 181.299C608.642 180.165 610.801 179.597 613.193 179.597C615.586 179.597 617.744 180.165 619.668 181.299C621.592 182.409 623.097 183.976 624.182 185.998C625.268 187.996 625.81 190.278 625.81 192.843C625.81 195.384 625.268 197.666 624.182 199.688C623.097 201.711 621.592 203.29 619.668 204.424C617.744 205.534 615.586 206.089 613.193 206.089ZM613.193 204.609C615.241 204.609 617.091 204.128 618.743 203.166C620.396 202.204 621.691 200.835 622.628 199.059C623.59 197.283 624.071 195.211 624.071 192.843C624.071 190.451 623.59 188.366 622.628 186.59C621.691 184.814 620.396 183.445 618.743 182.483C617.091 181.521 615.241 181.04 613.193 181.04C611.146 181.04 609.296 181.521 607.643 182.483C605.991 183.445 604.683 184.814 603.721 186.59C602.759 188.366 602.278 190.451 602.278 192.843C602.278 195.211 602.759 197.283 603.721 199.059C604.683 200.835 605.991 202.204 607.643 203.166C609.296 204.128 611.146 204.609 613.193 204.609ZM638.133 179.819C642.523 179.819 645.903 180.966 648.271 183.26C650.663 185.554 651.86 188.749 651.86 192.843C651.86 196.938 650.663 200.12 648.271 202.389C645.903 204.659 642.523 205.793 638.133 205.793H630.844V179.819H638.133ZM638.133 204.387C642.055 204.387 645.039 203.376 647.087 201.353C649.134 199.306 650.158 196.469 650.158 192.843C650.158 189.193 649.134 186.344 647.087 184.296C645.039 182.249 642.055 181.225 638.133 181.225H632.509V204.387H638.133ZM658.56 181.225V192.066H668.92V193.472H658.56V204.387H670.03V205.793H656.895V179.819H670.03V181.225H658.56ZM689.093 205.793L682.433 194.73H682.285H676.735V205.793H675.07V179.819H682.211C685.097 179.819 687.256 180.498 688.686 181.854C690.142 183.211 690.869 185.012 690.869 187.256C690.869 189.254 690.302 190.907 689.167 192.214C688.057 193.497 686.429 194.286 684.283 194.582L691.091 205.793H689.093ZM676.735 193.324H682.285C684.579 193.324 686.294 192.769 687.428 191.659C688.563 190.549 689.13 189.082 689.13 187.256C689.13 183.285 686.824 181.299 682.211 181.299H676.735V193.324ZM706.651 179.819V199.984C706.651 201.785 706.096 203.253 704.986 204.387C703.876 205.497 702.372 206.052 700.472 206.052C698.474 206.052 696.896 205.448 695.736 204.239C694.602 203.006 694.034 201.316 694.034 199.17H695.699C695.699 200.749 696.082 202.044 696.846 203.055C697.611 204.067 698.82 204.572 700.472 204.572C702.051 204.572 703.186 204.128 703.876 203.24C704.592 202.328 704.949 201.242 704.949 199.984V179.819H706.651Z" fill="white"/>
</svg>
